<?xml version="1.0" encoding="UTF-8" standalone="yes"?>
<svg version="1.2" width="1920" height="1920" viewBox="0 0 1920 1920" baseProfile="tiny-ps" xmlns="http://www.w3.org/2000/svg">
  <title>bimi-svg-tiny-12-ps</title>
  <defs id="defs1"/>
  <g id="g1">
    <path d="m 250.84444,348.01184 c -0.97777,-1.96484 -2.68186,-4.95442 -3.78685,-6.6435 -1.115,-1.70438 -3.47939,-4.5316 -5.31299,-6.35303 -1.81715,-1.80509 -3.40417,-3.28198 -3.5267,-3.28198 -0.12254,0 -1.06947,-0.63169 -2.10428,-1.40377 -1.03482,-0.77207 -3.54139,-2.22051 -5.57016,-3.21876 -2.02878,-0.99824 -4.53101,-2.04963 -5.56052,-2.33642 -1.0295,-0.28678 -3.23183,-0.75773 -4.89405,-1.04655 -1.66222,-0.28882 -4.62642,-0.52573 -6.58711,-0.52648 -1.96068,-7.4e-4 -4.92068,0.15593 -6.57777,0.34817 -1.6571,0.19224 -3.8929,0.52968 -4.96845,0.74987 -1.07556,0.22019 -2.19556,0.48512 -2.48889,0.58874 -0.29334,0.10361 -0.77334,0.22814 -1.06667,0.27673 -0.29333,0.0486 -1.65333,0.35116 -3.02222,0.67237 -1.36889,0.32121 -3.92889,0.90697 -5.68889,1.30169 -1.76,0.39472 -5.04,1.0937 -7.28889,1.55329 -2.24889,0.45958 -5.96662,1.12092 -8.26162,1.46963 l -4.17274,0.63402 -3.82726,-0.43784 c -2.105,-0.24081 -4.46727,-0.61875 -5.24949,-0.83987 -0.78222,-0.22111 -1.50222,-0.42697 -1.6,-0.45746 -0.0978,-0.0305 -0.49778,-0.17464 -0.88889,-0.32032 -0.39111,-0.14569 -1.11111,-0.42493 -1.6,-0.62054 -0.48889,-0.19561 -1.70168,-0.89309 -2.6951,-1.54995 -0.99341,-0.65687 -2.36251,-1.81006 -3.04243,-2.56265 -0.67992,-0.75259 -1.724,-2.0821 -2.32017,-2.95446 -0.59617,-0.87236 -1.26584,-2.1461 -1.48815,-2.83055 -0.22232,-0.68444 -0.64545,-2.17225 -0.94029,-3.30623 -0.29485,-1.13399 -0.5333,-3.13399 -0.52991,-4.44445 0.003,-1.31046 0.23622,-3.46829 0.51739,-4.79518 0.28116,-1.3269 0.84297,-2.83431 1.24846,-3.34981 0.46811,-0.5951 0.61336,-1.06117 0.39786,-1.27667 -0.21549,-0.21549 -1.41989,-0.18501 -3.29908,0.0835 -1.62783,0.23258 -5.11969,0.97369 -7.75969,1.6469 -2.64,0.67321 -5.68,1.47321 -6.75556,1.77779 -1.25822,0.35631 -2.84306,0.50121 -4.44444,0.40635 -1.36889,-0.0811 -3.42687,-0.44613 -4.57328,-0.81122 -1.14642,-0.36509 -2.60398,-1.14891 -3.23904,-1.74183 -0.63506,-0.59291 -1.69996,-1.87803 -2.36645,-2.8558 -0.6665,-0.97778 -1.64037,-2.67023 -2.16417,-3.761 -0.52379,-1.09077 -1.5312,-3.65077 -2.23868,-5.68889 -0.70748,-2.03812 -1.74759,-5.06567 -2.31135,-6.72789 -0.56376,-1.66222 -1.44386,-4.14222 -1.95577,-5.51111 -0.51191,-1.36889 -1.14909,-3.04889 -1.41595,-3.73334 -0.26686,-0.68444 -0.49648,-1.08571 -0.51026,-0.89171 -0.0138,0.194 -0.4256,-0.39971 -0.91517,-1.31936 -0.48956,-0.91964 -1.29808,-2.27837 -1.79672,-3.01939 -0.49863,-0.74102 -1.79123,-2.34731 -2.872434,-3.56954 -1.081207,-1.22222 -2.10444,-2.22222 -2.273849,-2.22222 -0.16941,0 -0.703436,-0.36 -1.186725,-0.8 -0.483289,-0.44 -1.731532,-1.21681 -2.773874,-1.72625 -1.042343,-0.50943 -2.375168,-1.13642 -2.961835,-1.39331 -0.586666,-0.25688 -1.386666,-0.43559 -1.777777,-0.39713 l -0.711112,0.0699 1.066667,-0.8978 c 0.586667,-0.49379 1.601428,-1.15278 2.255025,-1.46442 0.653597,-0.31165 2.315155,-1.63211 3.69235,-2.93438 1.377195,-1.30226 3.416799,-3.56775 4.532453,-5.03442 1.115651,-1.46666 2.694101,-3.72395 3.507651,-5.0162 0.81355,-1.29224 1.47919,-2.58024 1.47919,-2.86222 0,-0.28198 0.16416,-0.67685 0.36479,-0.87748 0.20064,-0.20064 0.77361,-1.47264 1.27327,-2.82667 0.49965,-1.35403 1.3019,-3.66187 1.78278,-5.12854 0.48087,-1.46666 1.175,-3.86666 1.54251,-5.33333 0.3675,-1.46667 0.93383,-3.46667 1.2585,-4.44445 0.32467,-0.97777 0.72752,-2.09777 0.89521,-2.48888 0.1677,-0.39112 0.40769,-1.11112 0.53332,-1.6 0.12562,-0.48889 0.56813,-1.76889 0.98336,-2.84445 0.41523,-1.07555 0.92388,-2.19555 1.13034,-2.48889 0.20646,-0.29333 0.68101,-1.1367 1.05456,-1.87415 0.37355,-0.73746 1.42945,-2.04261 2.34643,-2.90035 0.91699,-0.85773 2.36998,-1.92105 3.22887,-2.36292 l 1.56161,-0.80341 3.2,0.004 c 2.20287,0.003 4.08292,0.24891 6.03345,0.79069 1.5584,0.43287 3.3184,1.00968 3.91111,1.2818 0.59272,0.27212 2.11767,0.75765 3.38878,1.07896 1.27111,0.32131 2.83302,0.80217 3.4709,1.06859 0.63789,0.26641 2.45933,0.66231 4.04764,0.87978 1.66441,0.22789 3.0205,0.26274 3.20098,0.0823 0.18047,-0.18048 0.012,-1.50844 -0.39774,-3.13459 -0.39097,-1.5518 -0.71122,-3.86145 -0.71165,-5.13256 -4.4e-4,-1.27111 0.30775,-3.80637 0.68485,-5.63391 0.3771,-1.82754 1.19735,-4.38381 1.82278,-5.6806 0.62543,-1.2968 1.71479,-3.04916 2.4208,-3.89414 0.70601,-0.84499 2.16366,-2.22423 3.23921,-3.06498 1.07556,-0.84075 2.75556,-1.97393 3.73334,-2.51817 0.97778,-0.54425 2.73778,-1.34979 3.91111,-1.79011 1.17333,-0.44031 3.25333,-0.97737 4.62222,-1.19345 1.36889,-0.21609 3.20889,-0.49675 4.08889,-0.62369 0.88,-0.12695 3.67296,-0.30246 6.20657,-0.39004 2.53362,-0.0876 6.45362,0.0268 8.71111,0.25417 2.2575,0.22736 5.62454,0.56681 7.48232,0.75433 1.85778,0.18752 4.97778,0.50843 6.93333,0.71313 1.95556,0.2047 7.35537,0.45131 11.99958,0.54802 6.85907,0.14283 9.02806,0.0671 11.55556,-0.40369 1.71134,-0.31875 3.83153,-0.74673 4.71153,-0.95108 0.88,-0.20436 2.08,-0.53502 2.66667,-0.7348 0.58666,-0.19979 1.57084,-0.58449 2.18706,-0.8549 0.61623,-0.2704 1.32527,-0.49165 1.57565,-0.49165 0.25038,0 1.95285,-0.73336 3.78325,-1.6297 1.83041,-0.89633 4.58628,-2.49645 6.12416,-3.55581 1.53787,-1.05937 3.81123,-2.92691 5.0519,-4.1501 1.24066,-1.22318 2.62568,-2.70306 3.07781,-3.28862 0.45214,-0.58556 1.08663,-1.50465 1.41,-2.04243 0.32336,-0.53778 0.67343,-0.96839 0.77794,-0.95692 0.1045,0.0115 0.87939,1.09147 1.72198,2.4 0.84259,1.30853 2.44259,3.33914 3.55556,4.51247 1.11297,1.17334 3.06358,2.979 4.33469,4.01259 1.31123,1.06622 4.31086,2.86308 6.93333,4.15327 2.8067,1.38082 5.94895,2.61747 8,3.14843 1.85778,0.48093 5.05778,1.17196 7.11111,1.53562 2.95806,0.5239 5.21005,0.64431 10.84445,0.57987 3.91111,-0.0447 8.07111,-0.23993 9.24444,-0.43378 1.17333,-0.19384 4.21333,-0.53979 6.75556,-0.76876 2.54222,-0.22898 5.02222,-0.47555 5.51111,-0.54795 0.48889,-0.0724 2.72889,-0.30185 4.97777,-0.50989 2.24889,-0.20804 6.96889,-0.29994 10.48889,-0.20424 4.99802,0.13589 6.98416,0.33651 9.06667,0.91583 1.46667,0.40799 3.14667,0.92231 3.73333,1.14292 0.58667,0.22061 2.18667,0.93243 3.55556,1.58182 1.36889,0.64939 3.19875,1.82539 4.06636,2.61332 0.86761,0.78793 1.67035,1.47598 1.78386,1.529 0.11352,0.053 0.76546,0.8164 1.44876,1.6964 0.6833,0.88 1.52877,2.11858 1.87883,2.75241 0.35005,0.63383 0.96504,2.15333 1.36664,3.37667 0.40161,1.22334 0.79934,2.54475 0.88386,2.93647 0.0845,0.39173 0.15092,2.23223 0.14756,4.09 -0.003,1.85778 -0.075,3.69778 -0.15909,4.08889 -0.0841,0.39111 -0.47964,1.46643 -0.87889,2.38959 -0.40366,0.93333 -0.58083,1.76814 -0.3991,1.88045 0.17975,0.11109 1.17206,0.1082 2.20513,-0.006 1.03306,-0.11463 2.4383,-0.35518 3.12275,-0.53456 0.68444,-0.17939 2.84444,-0.82668 4.8,-1.43843 1.95555,-0.61175 4.83555,-1.51239 6.4,-2.00141 1.56444,-0.48903 3.80444,-1.0754 4.97777,-1.30306 1.3102,-0.25421 3.31401,-0.32281 5.19329,-0.17781 1.96484,0.15161 3.56117,0.49181 4.46043,0.95058 0.77026,0.39296 2.08604,1.45823 2.92397,2.36727 0.83792,0.90904 2.08681,2.88252 2.7753,4.38552 0.6885,1.503 1.38145,3.05273 1.5399,3.44384 0.15845,0.39111 0.6168,1.75111 1.01855,3.02222 0.40175,1.27111 1.04484,3.35111 1.42909,4.62222 0.38425,1.27111 0.80463,2.87111 0.93419,3.55556 0.12955,0.68444 0.46136,1.96444 0.73735,2.84444 0.27598,0.88 1.16684,3.68 1.97968,6.22222 0.81284,2.54223 1.69222,4.87483 1.95418,5.18356 0.26196,0.30873 0.4763,0.75405 0.4763,0.98959 0,0.23555 0.42288,1.26295 0.93973,2.28312 0.51685,1.02016 1.59339,2.89485 2.39229,4.16596 0.79891,1.27111 1.93603,2.86255 2.52694,3.53655 0.5909,0.67399 1.71214,1.93285 2.49163,2.79748 0.7795,0.86462 2.39982,2.27317 3.60071,3.13012 1.20089,0.85694 2.36313,1.55807 2.58274,1.55807 0.21961,0 0.39929,0.16 0.39929,0.35555 0,0.19556 -0.25835,0.35556 -0.57411,0.35556 -0.31575,0 -1.39575,0.43439 -2.4,0.96532 -1.00424,0.53092 -2.53392,1.43789 -3.39928,2.01548 -0.86536,0.57759 -2.67658,2.15555 -4.02493,3.50658 -1.34835,1.35103 -3.14006,3.52406 -3.98158,4.82896 -0.84152,1.3049 -2.09179,3.49255 -2.77838,4.86144 -0.68659,1.36889 -1.67401,3.52889 -2.19428,4.8 -0.52026,1.27111 -1.08817,2.63111 -1.26201,3.02222 -0.17385,0.39111 -0.82844,2.15111 -1.45466,3.91111 -0.62622,1.76 -1.31597,3.72 -1.53279,4.35556 -0.21681,0.63555 -0.51505,1.15555 -0.66276,1.15555 -0.1477,0 -0.26855,0.39569 -0.26855,0.87931 0,0.48362 -0.75878,2.10883 -1.68616,3.61158 -0.92739,1.50274 -2.34928,3.41456 -3.15976,4.24849 -0.81049,0.83392 -2.09172,1.82978 -2.84718,2.213 -0.75546,0.38323 -2.25945,0.89355 -3.3422,1.13404 -1.49824,0.33277 -2.51771,0.34264 -4.26666,0.0413 -1.26393,-0.21779 -3.09804,-0.54224 -4.07582,-0.72101 -0.97778,-0.17876 -3.27573,-0.81335 -5.10655,-1.41019 -1.83083,-0.59685 -4.55083,-1.19156 -6.04445,-1.32158 -1.49362,-0.13002 -3.01285,-0.38989 -3.37606,-0.57748 -0.43617,-0.22527 -0.78903,-0.21245 -1.03925,0.0378 -0.26809,0.26809 -0.23802,0.66751 0.10288,1.36627 0.26495,0.54308 0.69156,1.54742 0.94801,2.23187 0.25646,0.68444 0.56703,2.28901 0.69015,3.5657 0.15361,1.59281 0.0276,3.32228 -0.40149,5.51111 -0.34394,1.75442 -0.99813,3.93369 -1.45375,4.84282 -0.45562,0.90913 -1.31075,2.36767 -1.90028,3.24119 -0.58953,0.87352 -1.68128,2.13878 -2.4261,2.81169 -0.74483,0.6729 -2.06798,1.71158 -2.94034,2.30817 -0.87236,0.59659 -2.38611,1.44178 -3.36388,1.8782 -0.97778,0.43643 -2.73778,1.10588 -3.91111,1.48768 -1.17334,0.3818 -3.33334,0.86552 -4.8,1.07493 -1.62667,0.23225 -4.88534,0.28998 -8.35556,0.14802 -3.12889,-0.12799 -6.64889,-0.45049 -7.82222,-0.71666 -1.17334,-0.26617 -3.65334,-0.83355 -5.51111,-1.26084 -1.85778,-0.42729 -4.33778,-0.99336 -5.51111,-1.25793 -1.17334,-0.26457 -3.81334,-0.88539 -5.86667,-1.3796 -2.05333,-0.49421 -4.69333,-1.06613 -5.86667,-1.27092 -1.17333,-0.20479 -3.65333,-0.64098 -5.51111,-0.96931 -2.23418,-0.39486 -5.42421,-0.60366 -9.42222,-0.61672 -3.94782,-0.0129 -6.78443,0.1508 -8.17778,0.47196 -1.17333,0.27044 -3.63971,0.94817 -5.48083,1.50606 -1.84112,0.55789 -4.82079,1.83053 -6.62147,2.82807 -1.80108,0.99777 -4.69394,3.05824 -6.43028,4.58005 -1.73597,1.52148 -3.80828,3.54758 -4.60515,4.50244 -0.79686,0.95486 -2.19686,2.97338 -3.11111,4.48561 -0.91425,1.51223 -1.66227,2.84753 -1.66227,2.96734 0,0.1198 -0.31172,0.6556 -0.69271,1.19065 -0.38099,0.53506 -1.03244,1.83976 -1.44765,2.89933 -0.41522,1.05958 -0.8635,2.03298 -0.99618,2.1631 -0.13268,0.13013 -1.04124,-1.37101 -2.01902,-3.33586 z m 2.56369,-7.47851 c 0.20169,-0.44 1.32104,-2.08 2.48745,-3.64444 1.1664,-1.56445 2.82706,-3.54902 3.69035,-4.41017 0.8633,-0.86115 2.49999,-2.34287 3.63711,-3.29271 1.13712,-0.94983 2.89712,-2.25237 3.91111,-2.89453 1.014,-0.64216 2.72363,-1.65492 3.79918,-2.25058 1.07556,-0.59566 3.07556,-1.50289 4.44445,-2.01607 1.36889,-0.51318 3.28889,-1.11199 4.26666,-1.33069 0.97778,-0.21871 2.09778,-0.47391 2.48889,-0.56711 0.39111,-0.0932 2.63111,-0.33262 4.97778,-0.53203 2.94791,-0.25051 6.21129,-0.24514 10.55827,0.0174 3.46038,0.20896 6.98038,0.53455 7.82222,0.72353 0.84184,0.18898 4.01062,0.82014 7.04173,1.40259 3.03111,0.58245 7.03111,1.38895 8.88889,1.79224 1.85778,0.40328 5.37778,1.08394 7.82222,1.51259 3.17998,0.55762 5.96181,0.78561 9.77778,0.80135 4.06258,0.0168 5.96872,-0.13542 8,-0.63869 1.46667,-0.36338 3.8216,-1.21994 5.23319,-1.90346 1.4411,-0.69782 3.54589,-2.14165 4.8,-3.29266 1.22841,-1.12743 2.8207,-3.04563 3.53842,-4.26267 0.778,-1.31925 1.55132,-3.31225 1.91508,-4.93554 l 0.61015,-2.72275 -0.43595,-2.13333 c -0.23978,-1.17334 -0.74487,-2.81181 -1.12243,-3.64106 -0.37757,-0.82925 -1.08318,-1.76766 -1.56802,-2.08534 -0.48485,-0.31769 -0.88155,-0.69234 -0.88155,-0.83255 0,-0.14022 1.51007,-0.60182 3.35571,-1.02578 2.12603,-0.48836 4.54112,-0.77083 6.59058,-0.77083 1.9792,0 5.2656,0.3715 8.46651,0.95706 2.8774,0.52639 6.28224,0.9549 7.5663,0.95224 1.68002,-0.003 2.79349,-0.22694 3.97102,-0.79697 0.90001,-0.43569 2.28153,-1.49207 3.07005,-2.34752 0.78853,-0.85544 2.05938,-2.80748 2.82411,-4.33786 0.76474,-1.53038 1.59348,-3.42251 1.84164,-4.20473 0.24816,-0.78222 0.56394,-1.58222 0.70173,-1.77778 0.13779,-0.19555 0.69615,-1.63555 1.24079,-3.2 0.54464,-1.56444 1.88766,-4.68337 2.98449,-6.93095 1.09683,-2.24758 2.91809,-5.4654 4.04725,-7.15071 1.12916,-1.68531 3.08036,-4.10682 4.33601,-5.38113 1.25564,-1.27432 2.97517,-2.78406 3.82118,-3.35498 0.846,-0.57092 1.81819,-1.14546 2.16041,-1.27675 0.34222,-0.13129 0.62222,-0.40373 0.62222,-0.60543 0,-0.20169 -0.14139,-0.36671 -0.3142,-0.36671 -0.17281,0 -1.45632,-1.17367 -2.85223,-2.60814 -1.39592,-1.43448 -2.92886,-3.15448 -3.40653,-3.82223 -0.47768,-0.66774 -0.99418,-1.37408 -1.14777,-1.56963 -0.1536,-0.19556 -0.70034,-1.00353 -1.21499,-1.79549 -0.51465,-0.79197 -1.34315,-2.24395 -1.84111,-3.22664 -0.49796,-0.98268 -1.45567,-3.21471 -2.12824,-4.96006 -0.67256,-1.74535 -1.54922,-4.21337 -1.94812,-5.48448 -0.3989,-1.27111 -1.04512,-3.43111 -1.43604,-4.8 -0.39092,-1.36889 -1.2969,-4.48817 -2.01328,-6.93173 -0.71639,-2.44357 -1.5526,-5.00357 -1.85825,-5.68889 -0.30565,-0.68533 -0.86437,-1.9169 -1.24158,-2.73682 -0.37722,-0.81993 -1.28288,-2.10598 -2.01259,-2.85789 -0.72971,-0.75192 -1.94581,-1.66089 -2.70245,-2.01994 l -1.37571,-0.65281 -3.58679,0.1749 c -2.46022,0.11998 -5.15025,0.57187 -8.56456,1.43875 -2.73778,0.69511 -6.6117,1.46132 -8.60871,1.70268 -2.83072,0.34214 -4.29452,0.34602 -6.64201,0.0176 -1.6561,-0.23168 -3.50219,-0.59243 -4.10241,-0.80167 -0.60023,-0.20923 -1.09132,-0.50612 -1.09132,-0.65973 0,-0.15362 0.30527,-0.35914 0.67837,-0.45671 0.37311,-0.0976 1.13311,-0.86442 1.68889,-1.70412 L 360,206.80802 v -3.75956 c 0,-2.55952 -0.19512,-4.38378 -0.61127,-5.71513 -0.3362,-1.07555 -1.2162,-2.97871 -1.95555,-4.22924 -0.89031,-1.50584 -2.1358,-2.9149 -3.68802,-4.17237 -1.28905,-1.04427 -3.52905,-2.43511 -4.97778,-3.09075 -1.49077,-0.67467 -4.37565,-1.54043 -6.64662,-1.99467 l -4.01257,-0.80259 -6.47632,0.15789 c -3.56197,0.0868 -8.71631,0.42405 -11.45409,0.74936 -2.73778,0.32532 -6.73778,0.8236 -8.88889,1.1073 -2.15111,0.28369 -6.31111,0.61312 -9.24445,0.73207 -2.93333,0.11894 -7.41333,0.0556 -9.95555,-0.14069 -2.54222,-0.19631 -6.06222,-0.6934 -7.82222,-1.10464 -1.76,-0.41123 -4.8,-1.33137 -6.75556,-2.04474 -1.95555,-0.71337 -4.92903,-1.99784 -6.60773,-2.85438 -1.6787,-0.85653 -4.3987,-2.56814 -6.04445,-3.80358 -1.64574,-1.23543 -3.79226,-3.02535 -4.77004,-3.9776 -0.97778,-0.95225 -2.12563,-2.1775 -2.55078,-2.72277 l -0.77301,-0.99141 -1.70782,1.82581 c -0.93931,1.00419 -2.98209,2.78599 -4.53953,3.95955 -1.55743,1.17356 -4.04105,2.83235 -5.51916,3.68619 -1.47812,0.85385 -4.33477,2.2098 -6.34814,3.01323 -2.01336,0.80343 -5.21336,1.84891 -7.11111,2.32327 -1.89775,0.47437 -4.97045,1.04536 -6.82823,1.26886 -2.18683,0.26309 -6.26112,0.32961 -11.55555,0.18867 -4.49778,-0.11974 -9.37778,-0.38534 -10.84445,-0.59022 -1.46667,-0.20489 -4.18667,-0.53567 -6.04444,-0.73508 -1.85778,-0.19941 -6.09778,-0.49718 -9.42223,-0.66173 -3.32444,-0.16454 -8.15225,-0.17017 -10.72845,-0.0125 -2.83892,0.17373 -5.78014,0.58715 -7.46667,1.04953 -1.53046,0.41958 -3.9775,1.35137 -5.43786,2.07062 -1.85139,0.91185 -3.41261,2.06121 -5.15709,3.79663 -1.69723,1.68842 -2.85606,3.23219 -3.60313,4.8 -0.60569,1.27111 -1.27674,3.27111 -1.49123,4.44445 -0.21448,1.17333 -0.49366,3.02923 -0.62038,4.12422 -0.15616,1.34938 -0.0468,2.70749 0.33932,4.21475 0.31335,1.22312 0.89293,2.67776 1.28796,3.23253 0.39503,0.55476 1.07408,1.12469 1.50899,1.26649 l 0.79077,0.25783 -1.77778,0.47535 c -0.97778,0.26144 -3.23493,0.57751 -5.0159,0.70238 -1.90472,0.13354 -4.66491,0.0474 -6.70302,-0.2091 -1.90568,-0.23987 -5.24853,-0.83902 -7.42854,-1.33145 -2.18001,-0.49243 -5.20736,-0.97591 -6.72746,-1.07441 -1.52009,-0.0985 -3.30841,-0.0769 -3.97405,0.048 -0.7038,0.13204 -1.93321,0.87705 -2.93789,1.78035 -0.95021,0.85432 -2.14791,2.40926 -2.66155,3.45543 -0.51364,1.04616 -1.18092,2.46211 -1.48285,3.14656 -0.30193,0.68444 -0.86111,2.12444 -1.24262,3.2 -0.38151,1.07555 -1.04536,3.15555 -1.47522,4.62222 -0.42986,1.46667 -1.43001,4.58667 -2.22256,6.93333 -0.79255,2.34667 -1.89017,5.26937 -2.43916,6.4949 -0.54899,1.22552 -1.67159,3.3813 -2.49468,4.79062 -0.82308,1.40931 -2.45703,3.81919 -3.631,5.35528 -1.17397,1.53608 -3.01795,3.5803 -4.097746,4.54271 -1.079793,0.9624 -2.151731,1.74983 -2.382083,1.74983 -0.230352,0 -0.618005,0.24 -0.86145,0.53333 l -0.442627,0.53333 h 0.715533 c 0.393543,0 1.653134,0.7007 2.799091,1.55712 1.145962,0.85641 2.904982,2.41641 3.908952,3.46666 1.00396,1.05026 2.41726,2.69924 3.14066,3.6644 0.72341,0.96516 2.04258,3.20298 2.9315,4.97292 0.88892,1.76994 2.1705,4.74026 2.84796,6.60071 0.67746,1.86045 1.91873,5.47128 2.75838,8.02407 0.83965,2.55279 2.04541,5.67279 2.67946,6.93333 0.63406,1.26055 1.62731,2.89402 2.20723,3.62994 0.57992,0.73592 1.71928,1.72297 2.53191,2.19345 0.81263,0.47047 2.36474,0.9627 3.44913,1.09383 1.2164,0.1471 3.5317,0.0166 6.04444,-0.34062 2.24005,-0.31847 5.04305,-0.81281 6.22888,-1.09853 1.4135,-0.34059 4.05464,-0.5195 7.66879,-0.5195 3.92669,0 6.0428,0.15741 7.35507,0.54711 1.01327,0.30091 1.84231,0.70091 1.84231,0.88889 0,0.18798 -0.36,0.34252 -0.8,0.34342 -0.44,9.1e-4 -1.34146,0.50907 -2.00323,1.12925 -0.66178,0.62018 -1.49602,1.7895 -1.85388,2.59849 -0.35786,0.809 -0.67499,2.42084 -0.70474,3.58187 -0.0298,1.16103 0.13696,3.14089 0.37047,4.39968 0.23351,1.25879 0.8234,3.07578 1.31087,4.03777 0.48748,0.96198 1.3643,2.41206 1.94851,3.2224 0.58421,0.81034 1.7329,2.01462 2.55265,2.67618 0.81975,0.66155 2.67877,1.77276 4.13114,2.46934 l 2.64068,1.26652 5.00377,0.14609 c 3.47291,0.1014 6.20032,-0.0309 8.91487,-0.43237 2.15111,-0.31815 5.03111,-0.80018 6.4,-1.07117 1.36889,-0.27099 4.08889,-0.83313 6.04444,-1.24921 1.95556,-0.41607 4.83556,-1.00202 6.4,-1.30211 1.56445,-0.30008 4.20445,-0.77693 5.86667,-1.05966 1.66222,-0.28274 5.50222,-0.61423 8.53333,-0.73666 3.50334,-0.14149 6.87122,-0.0652 9.24445,0.20947 2.05333,0.23763 4.93333,0.74387 6.4,1.12498 1.46666,0.3811 2.98666,0.84808 3.37778,1.03772 0.39111,0.18965 1.42584,0.59109 2.29941,0.89209 0.87357,0.301 2.79357,1.26935 4.26667,2.15189 1.4731,0.88253 3.47836,2.17268 4.45614,2.86699 0.97778,0.69431 2.81778,2.22976 4.08889,3.41209 1.27111,1.18234 3.36725,3.55631 4.6581,5.27549 1.29084,1.71918 2.55026,3.61651 2.79869,4.21628 0.24844,0.59978 0.64661,1.0905 0.88483,1.0905 0.23822,0 0.59814,-0.36 0.79984,-0.8 z m 86.76965,-27.4098 -3.82222,-0.74426 0.0212,-0.90075 c 0.0117,-0.49541 0.16862,-1.70074 0.34881,-2.67852 0.18018,-0.97778 0.66527,-4.01778 1.07797,-6.75556 0.41269,-2.73777 0.85573,-5.69777 0.98452,-6.57777 l 0.23417,-1.6 0.88889,0.0962 c 0.48889,0.0529 1.40889,0.18018 2.04445,0.28278 0.79135,0.12774 1.14887,0.37756 1.13436,0.79264 -0.0117,0.33336 -0.15883,1.32611 -0.32705,2.20611 -0.16823,0.88 -0.69943,3.92 -1.18046,6.75556 -0.48103,2.83556 -0.81745,5.25447 -0.74759,5.37536 0.0699,0.12089 0.89059,0.32348 1.82387,0.4502 0.93327,0.12673 1.91064,0.36577 2.17192,0.53122 0.35775,0.22653 0.40023,0.67919 0.17201,1.83319 -0.16667,0.84282 -0.46045,1.56511 -0.65283,1.6051 -0.19238,0.04 -2.06979,-0.2622 -4.17201,-0.67154 z m -172.85691,-6.14531 c -0.12331,-2.90913 -0.31687,-6.9853 -0.43013,-9.05816 l -0.20593,-3.76883 2.06511,-0.21314 c 1.13582,-0.11722 2.23246,-0.0743 2.43699,0.0955 0.20453,0.16974 1.41009,2.30935 2.67902,4.75468 1.26894,2.44533 2.38822,4.36688 2.48728,4.27012 0.0991,-0.0968 0.7471,-2.51933 1.44006,-5.38348 l 1.25994,-5.20754 2.11503,-0.42369 c 1.16326,-0.23303 2.21265,-0.36335 2.33197,-0.2896 0.11932,0.0737 0.3092,1.2345 0.42196,2.57946 0.11276,1.34496 0.37126,3.39012 0.57446,4.54481 0.20319,1.15469 0.62001,4.08601 0.92625,6.51403 0.30625,2.42803 0.43138,4.53723 0.27808,4.68711 -0.15331,0.14988 -1.07556,0.32331 -2.04945,0.38541 l -1.7707,0.11289 -0.42501,-4.26667 c -0.23376,-2.34667 -0.43694,-4.62667 -0.45152,-5.06667 -0.0146,-0.44 -0.16401,-0.8 -0.33208,-0.8 -0.16806,0 -0.74958,1.88 -1.29226,4.17778 -0.54269,2.29778 -1.08518,4.27837 -1.20554,4.40132 -0.12036,0.12295 -0.80725,0.32802 -1.52641,0.45572 l -1.30757,0.23218 -2.07021,-4.18905 -2.07021,-4.18906 -0.10437,2.57303 c -0.0574,1.41516 0.0453,3.65516 0.2283,4.97778 0.18297,1.32261 0.21768,2.529 0.0771,2.68086 -0.14054,0.15187 -1.06563,0.37207 -2.05576,0.48933 l -1.80023,0.21321 z m 164.48348,4.94102 c -0.85221,-0.10512 -1.26587,-0.38787 -1.51111,-1.03291 -0.18573,-0.4885 -0.34013,-1.23776 -0.34313,-1.66503 -0.003,-0.42727 -0.12834,-0.97022 -0.27854,-1.20656 -0.15242,-0.23983 -1.52471,-0.53361 -3.10566,-0.66487 l -2.83258,-0.23516 -0.79538,1.64264 -0.79537,1.64265 -1.51574,-0.005 c -0.83365,-0.003 -1.74973,-0.15346 -2.03574,-0.33436 l -0.52002,-0.32891 1.5582,-3.13231 c 0.857,-1.72277 2.73515,-5.61231 4.17365,-8.64342 l 2.61546,-5.51112 1.85747,0.11209 c 1.02161,0.0616 2.11439,0.18511 2.42841,0.27435 0.38871,0.11047 0.71087,0.9258 1.00939,2.55458 0.24115,1.31577 0.67338,3.67232 0.96051,5.23676 0.28713,1.56445 0.74227,4.28445 1.01141,6.04445 0.26915,1.76 0.5,3.72 0.513,4.35555 0.0183,0.89297 -0.11775,1.14263 -0.59858,1.09866 -0.34222,-0.0313 -1.15026,-0.12204 -1.79565,-0.20164 z m -21.04444,-2.55042 -1.59565,-0.21326 -0.23623,-1.24445 c -0.12992,-0.68444 -0.48337,-2.52444 -0.78545,-4.08889 -0.30208,-1.56444 -0.89342,-4.36444 -1.31409,-6.22222 -0.42067,-1.85778 -0.90221,-4.01778 -1.07008,-4.8 -0.16787,-0.78222 -0.31219,-1.62986 -0.3207,-1.88363 -0.0114,-0.341 0.5571,-0.43379 2.17854,-0.35556 l 2.19403,0.10586 0.0792,0.71111 c 0.0435,0.39111 0.43698,2.63111 0.87428,4.97778 0.4373,2.34666 0.89435,4.95186 1.01567,5.78933 0.12132,0.83747 0.37282,1.47747 0.55889,1.42223 0.18607,-0.0553 0.7783,-1.37113 1.31607,-2.92418 0.53778,-1.55305 1.58554,-4.23062 2.32836,-5.95016 l 1.35059,-3.12643 2.02346,-0.005 c 1.11291,-0.003 2.09576,0.1146 2.18412,0.26126 0.0884,0.14667 -0.18611,0.98667 -0.60994,1.86667 -0.42383,0.88 -1.55309,3.36 -2.50947,5.51111 -0.95637,2.15111 -2.42959,5.39111 -3.27382,7.2 -1.13265,2.42687 -1.69971,3.27489 -2.16354,3.23549 -0.34572,-0.0294 -1.34663,-0.14937 -2.22423,-0.26667 z m -119.6488,-0.69702 c -0.58667,-0.36238 -1.33088,-0.96178 -1.65382,-1.332 -0.32293,-0.37022 -0.75532,-1.31313 -0.96086,-2.09536 -0.20554,-0.78222 -0.55657,-4.11364 -0.78006,-7.40316 -0.22349,-3.28952 -0.3511,-6.03408 -0.28358,-6.09902 0.0675,-0.0649 1.02394,-0.2296 2.12538,-0.36591 l 2.00262,-0.24783 0.23769,5.1024 c 0.13073,2.80633 0.42477,5.8818 0.65342,6.83438 0.26043,1.08498 0.71315,1.92685 1.21191,2.25365 0.52351,0.34301 1.17056,0.43945 1.88934,0.28158 0.60124,-0.13206 1.35545,-0.64039 1.67601,-1.12963 l 0.58284,-0.88953 -0.40586,-6.26555 c -0.31754,-4.90213 -0.31159,-6.32544 0.0273,-6.54079 0.23825,-0.15139 1.19319,-0.2777 2.12208,-0.2807 1.37328,-0.004 1.689,0.11084 1.68948,0.61678 3.2e-4,0.34222 0.17074,3.20645 0.3787,6.36494 0.26795,4.06963 0.26742,6.15376 -0.002,7.15358 -0.20895,0.77598 -0.72363,1.84785 -1.14374,2.38193 -0.42011,0.53408 -1.47283,1.27497 -2.33938,1.64641 -0.98201,0.42094 -2.4016,0.67486 -3.7683,0.67403 -1.51215,-9.1e-4 -2.52382,-0.20583 -3.25941,-0.6602 z m 108.26667,-0.30961 c -0.68445,-0.0804 -1.34873,-0.25482 -1.4762,-0.38754 -0.12746,-0.13272 -0.0198,-1.75458 0.23935,-3.60412 0.2591,-1.84954 0.58484,-5.80954 0.72386,-8.8 l 0.25278,-5.4372 h 2.08566 2.08566 v 1.37132 c 0,0.75422 -0.16107,3.51422 -0.35794,6.13333 -0.19687,2.61911 -0.54007,6.16202 -0.76267,7.87313 -0.32468,2.49581 -0.51759,3.09986 -0.97539,3.05421 -0.31387,-0.0313 -1.13067,-0.1227 -1.81511,-0.20313 z m -93.51666,-0.75815 -1.2389,-0.66263 -0.10881,-2.07718 -0.10882,-2.07718 0.64215,0.5734 c 0.35318,0.31537 1.33554,0.75805 2.18301,0.98375 0.84748,0.22569 2.01707,0.30575 2.5991,0.17792 0.66262,-0.14554 1.17946,-0.55127 1.3825,-1.0853 0.17834,-0.46908 0.23424,-1.08744 0.12423,-1.37414 -0.11002,-0.2867 -1.55341,-1.16741 -3.20754,-1.95713 l -3.00751,-1.43586 -0.55325,-1.32412 c -0.34773,-0.83223 -0.48783,-1.90454 -0.37714,-2.88657 0.0969,-0.85935 0.48359,-1.97429 0.8594,-2.47765 0.37581,-0.50335 1.12533,-1.24508 1.6656,-1.64827 0.78665,-0.58707 1.49046,-0.72904 3.53358,-0.71281 1.40321,0.0111 2.91128,0.21678 3.35128,0.45696 l 0.8,0.43668 v 1.76527 c 0,0.97089 -0.0851,1.76526 -0.1892,1.76526 -0.10406,0 -0.7636,-0.24 -1.46564,-0.53333 -0.70205,-0.29333 -1.78491,-0.53333 -2.40636,-0.53333 -0.62145,0 -1.32191,0.192 -1.55658,0.42666 -0.23466,0.23467 -0.42666,0.79098 -0.42666,1.23625 0,0.45612 0.34928,1.02533 0.8,1.30373 0.44,0.27179 1.57286,0.79547 2.51746,1.16376 0.94461,0.36828 2.26461,1.27006 2.93333,2.00396 l 1.21587,1.33435 v 1.89053 1.89054 l -1.2327,1.44013 c -0.67799,0.79208 -1.78217,1.70088 -2.45374,2.01956 -0.67156,0.31868 -2.07934,0.57942 -3.1284,0.57942 -1.18063,0 -2.3794,-0.25247 -3.14626,-0.66263 z m 81.90273,-0.25017 c -0.11761,-0.30648 -0.10407,-1.54648 0.0301,-2.75556 0.13416,-1.20907 0.37497,-4.19831 0.53513,-6.64275 0.16016,-2.44445 0.22219,-4.56445 0.13786,-4.71112 -0.0843,-0.14666 -0.91723,-0.26666 -1.85088,-0.26666 -0.93364,0 -1.77215,-0.0746 -1.86335,-0.16582 -0.0912,-0.0912 -0.0733,-0.9312 0.0399,-1.86667 0.11313,-0.93546 0.36518,-1.67282 0.56009,-1.63856 0.19492,0.0343 2.83031,0.17247 5.85642,0.30714 3.02611,0.13466 5.61956,0.35217 5.76322,0.48335 0.14366,0.13118 0.13787,0.95297 -0.0129,1.8262 l -0.27407,1.58769 -2.03158,-0.12358 -2.03158,-0.12358 -0.009,1.19025 c -0.005,0.65463 -0.16068,3.65029 -0.34573,6.657 -0.18504,3.00672 -0.43165,5.76672 -0.54801,6.13333 -0.16942,0.5338 -0.56314,0.66658 -1.97654,0.66658 -1.27453,0 -1.8244,-0.15484 -1.97881,-0.55724 z m -13.63052,-0.19512 c -0.68444,-0.20619 -1.52444,-0.62606 -1.86666,-0.93304 -0.44866,-0.40245 -0.62223,-1.10037 -0.62223,-2.50196 v -1.94382 l 0.8,0.57409 c 0.44,0.31575 1.33954,0.81527 1.99898,1.11004 0.65944,0.29476 1.53944,0.53085 1.95556,0.52463 0.41612,-0.006 1.03658,-0.22386 1.3788,-0.48364 0.34222,-0.25978 0.62222,-0.8699 0.62222,-1.35581 0,-0.48591 -0.28,-1.12963 -0.62222,-1.43048 -0.34222,-0.30086 -1.28675,-0.88102 -2.09894,-1.28924 -0.8122,-0.40822 -1.9722,-1.34331 -2.57778,-2.07799 L 272,296.01576 v -1.82197 c 0,-1.30514 0.22693,-2.15441 0.8,-2.99397 0.44,-0.6446 1.3575,-1.46827 2.0389,-1.83036 0.70422,-0.37422 1.96706,-0.65835 2.92614,-0.65835 0.92798,0 2.33047,0.25737 3.11665,0.57194 l 1.42942,0.57194 v 1.91695 c 0,1.05432 -0.0462,1.91695 -0.1026,1.91695 -0.0564,0 -0.73026,-0.32 -1.4974,-0.71111 -0.76714,-0.39111 -1.82325,-0.71111 -2.3469,-0.71111 -0.52365,0 -1.31112,0.29072 -1.74993,0.64604 l -0.79783,0.64605 0.39478,0.73766 c 0.21714,0.40572 1.24796,1.21916 2.29073,1.80767 1.04276,0.5885 2.39016,1.63289 2.99421,2.32086 0.65396,0.74483 1.19913,1.8478 1.34756,2.72639 0.19951,1.1809 0.082,1.80052 -0.58831,3.10314 -0.46068,0.89519 -1.25212,1.9371 -1.75874,2.31535 -0.59026,0.44069 -1.67507,0.73732 -3.02002,0.82577 -1.15439,0.0759 -2.65888,-0.0307 -3.34333,-0.23685 z m -55.65098,-5.20319 c -0.14203,-2.88445 -0.36161,-6.8095 -0.48796,-8.72233 -0.13839,-2.09504 -0.0928,-3.6148 0.11461,-3.82223 0.18938,-0.18938 1.10155,-0.34433 2.02704,-0.34433 1.29795,0 1.72327,0.14227 1.86013,0.62222 0.0976,0.34222 0.28795,4.42222 0.42304,9.06667 l 0.24562,8.44444 h -1.96212 -1.96212 z m 10.88246,4.08395 c -0.86269,-0.43729 -2.02316,-1.41972 -2.57883,-2.1832 -0.55567,-0.76347 -1.18582,-2.03996 -1.40035,-2.83665 -0.21452,-0.79668 -0.33073,-2.49202 -0.25824,-3.76742 0.0875,-1.54001 0.42789,-2.91596 1.01332,-4.09644 0.5647,-1.13868 1.50945,-2.24685 2.62871,-3.08339 1.2345,-0.92267 2.35954,-1.41372 3.83402,-1.67345 1.14776,-0.20217 2.28152,-0.30254 2.51947,-0.22305 0.23796,0.0795 1.11265,0.3186 1.94376,0.53135 l 1.51111,0.38682 v 1.94185 c 0,1.35627 -0.13939,1.94185 -0.46222,1.94185 -0.25423,0 -0.65666,-0.19443 -0.89429,-0.43207 -0.23817,-0.23816 -1.37486,-0.43762 -2.53281,-0.44444 -1.5862,-0.009 -2.3469,0.1695 -3.10571,0.73018 -0.55274,0.40841 -1.27729,1.28841 -1.61012,1.95556 -0.33283,0.66714 -0.61283,1.87973 -0.62222,2.69462 -0.009,0.8149 0.29336,2.20585 0.67277,3.09099 0.45947,1.0719 1.07202,1.80698 1.83422,2.20113 0.84966,0.43938 1.59775,0.53163 2.90483,0.35824 0.96825,-0.12844 2.13581,-0.47947 2.59459,-0.78007 0.45877,-0.3006 0.97417,-0.46 1.14533,-0.35421 0.17116,0.10578 0.27271,0.87957 0.22566,1.71953 -0.047,0.83996 -0.10005,1.62983 -0.11778,1.75526 -0.0177,0.12544 -0.67549,0.48544 -1.46167,0.8 -0.82477,0.33001 -2.44158,0.56986 -3.82222,0.56701 -1.7651,-0.004 -2.80428,-0.2135 -3.96133,-0.8 z m 17.62778,0.5679 c -0.13037,-0.13037 -0.23703,-4.21037 -0.23703,-9.06667 v -8.82963 l 3.64444,-0.004 c 2.00444,-0.002 4.24444,-0.10309 4.97778,-0.2243 l 1.33333,-0.22039 v 2.00208 2.00208 h -2.86302 -2.86303 l 0.10747,1.86666 L 251.2,296 l 2.4,-0.1205 2.4,-0.1205 v 1.80939 1.80939 h -2.48889 -2.48889 v 3.50903 3.50904 l -1.33333,0.22038 c -0.73333,0.12121 -1.58667,0.22215 -1.8963,0.2243 -0.30963,0.002 -0.66963,-0.10275 -0.8,-0.23312 z m 12.32797,-6.42963 c 0.12814,-3.66667 0.23344,-7.74667 0.23399,-9.06667 l 0.001,-2.4 h 4.97777 4.97778 v 1.81447 1.81446 L 266.75556,292.21446 264,292.08889 V 294.04444 296 l 2.31111,0.007 2.31111,0.007 0.10772,1.66576 0.10772,1.66575 -2.59661,0.10485 -2.59661,0.10485 -0.10747,1.86666 -0.10747,1.86667 h 2.86303 2.86303 v 1.77778 1.77777 h -5.034 -5.034 z m 99.435,-11.84256 c -0.88,-0.15448 -2.32,-0.4411 -3.2,-0.63693 -0.88,-0.19582 -2.4,-0.62687 -3.37778,-0.95788 -0.97778,-0.33101 -2.57778,-1.00013 -3.55556,-1.48695 -0.97778,-0.48681 -2.45749,-1.30799 -3.28825,-1.82484 -1.22796,-0.76396 -1.51171,-1.13924 -1.51707,-2.0064 -0.004,-0.58666 0.17391,-3.30666 0.39452,-6.04444 0.22061,-2.73778 0.46366,-5.19183 0.54011,-5.45345 0.089,-0.3044 1.06686,0.34072 2.71596,1.79171 1.41733,1.24707 3.21695,2.67349 3.99918,3.16984 0.78222,0.49634 2.30222,1.31363 3.37777,1.81619 1.07556,0.50256 2.61317,1.1088 3.41692,1.34721 0.81376,0.24138 2.6404,0.37393 4.12193,0.29912 l 2.66056,-0.13436 1.30067,-0.99206 c 0.71537,-0.54564 1.57436,-1.5038 1.90887,-2.12925 0.38789,-0.72526 0.60224,-1.90993 0.59175,-3.27051 l -0.0165,-2.13333 -1.1691,-1.88805 c -0.86361,-1.39468 -2.49744,-2.94692 -6.25245,-5.94018 -2.79584,-2.22867 -5.66993,-4.68611 -6.38685,-5.46097 -0.71693,-0.77486 -1.67202,-2.10177 -2.12242,-2.9487 -0.4504,-0.84694 -1.07668,-2.40892 -1.39172,-3.47108 -0.31504,-1.06216 -0.57158,-2.82216 -0.57009,-3.91111 0.001,-1.08895 0.3109,-2.99337 0.68757,-4.23204 0.37667,-1.23868 1.21545,-3.02408 1.86395,-3.96758 0.6485,-0.94349 2.00594,-2.31566 3.01652,-3.04926 1.01058,-0.7336 2.72128,-1.70655 3.80155,-2.1621 1.22914,-0.51833 3.06953,-0.91316 4.91813,-1.05513 1.6572,-0.12727 4.30295,-0.0473 6.02677,0.18225 1.69002,0.22501 4.17002,0.78262 5.51111,1.23912 1.34109,0.45651 3.45323,1.34266 4.69364,1.96923 l 2.2553,1.13922 -0.19155,0.77819 c -0.10535,0.428 -0.28939,2.05819 -0.40897,3.62263 -0.11959,1.56445 -0.3832,3.9272 -0.5858,5.25057 l -0.36836,2.40611 -1.5825,-1.6052 c -0.87038,-0.88287 -2.4564,-2.16424 -3.52451,-2.8475 -1.0681,-0.68326 -2.89601,-1.56366 -4.06201,-1.95646 -1.16601,-0.3928 -2.98994,-0.71418 -4.05318,-0.71418 -1.31995,0 -2.41258,0.25377 -3.44448,0.8 -0.83121,0.44 -1.80573,1.28 -2.1656,1.86666 -0.36861,0.60092 -0.65489,1.73669 -0.65563,2.60116 -7.4e-4,0.84396 0.18464,1.88396 0.41193,2.31111 0.2273,0.42714 0.87908,1.35796 1.4484,2.06848 0.56933,0.71052 1.78336,1.82541 2.69785,2.47753 0.91449,0.65212 2.54271,1.89265 3.61826,2.75675 1.07556,0.86409 2.68328,2.24542 3.57271,3.06961 0.88943,0.8242 2.10244,2.12232 2.69557,2.88473 0.59313,0.7624 1.44015,2.14714 1.88225,3.07719 0.44211,0.93004 1.02721,2.53004 1.30021,3.55555 0.27301,1.02551 0.49828,2.83094 0.5006,4.01208 0.002,1.18114 -0.23403,3.06224 -0.52523,4.18023 -0.2912,1.11799 -0.99463,2.95421 -1.56317,4.08048 -0.56854,1.12628 -1.82756,2.79033 -2.79782,3.69789 -0.97026,0.90757 -2.39643,1.97271 -3.16927,2.36698 -0.77284,0.39427 -2.37866,0.96912 -3.56849,1.27744 -1.31992,0.34202 -3.46021,0.54205 -5.48979,0.51306 -1.82955,-0.0261 -4.04645,-0.1739 -4.92645,-0.32838 z M 144.8641,287.29363 c -1.18697,-0.16674 -3.10697,-0.57649 -4.26667,-0.91056 -1.1597,-0.33407 -2.98854,-1.09144 -4.0641,-1.68306 -1.07555,-0.59161 -2.86006,-1.76857 -3.96556,-2.61545 -1.10551,-0.84689 -2.76189,-2.54001 -3.68085,-3.7625 -0.91896,-1.22248 -2.03389,-2.94506 -2.47763,-3.82794 -0.44373,-0.88288 -1.13325,-2.64523 -1.53227,-3.91634 -0.39901,-1.27111 -0.93957,-3.27111 -1.20125,-4.44445 -0.27289,-1.22365 -0.47091,-4.18011 -0.46436,-6.93333 l 0.0114,-4.8 0.829,-2.83337 c 0.45596,-1.55836 1.23239,-3.71836 1.72541,-4.8 0.49301,-1.08165 1.38551,-2.68663 1.98331,-3.56663 0.59781,-0.88 1.81624,-2.45123 2.70763,-3.49163 0.8914,-1.0404 2.42623,-2.51325 3.41075,-3.27301 0.98452,-0.75975 2.98452,-2.00402 4.44445,-2.76503 1.45992,-0.761 4.09441,-1.76815 5.85441,-2.2381 l 3.2,-0.85445 h 6.4 c 4.40442,0 6.92946,0.15379 8.09805,0.49322 0.93392,0.27126 1.8071,0.66967 1.94039,0.88534 0.13329,0.21567 0.34802,2.87372 0.47718,5.90678 0.12915,3.03306 0.17801,5.57928 0.10858,5.65827 -0.0694,0.079 -1.20829,-0.35167 -2.53078,-0.95702 -1.32249,-0.60534 -3.15692,-1.28705 -4.0765,-1.51489 -0.97957,-0.24271 -3.41689,-0.36174 -5.88548,-0.28743 l -4.2135,0.12684 -2.6993,1.33424 c -1.94237,0.96011 -3.26081,1.94075 -4.70175,3.49715 -1.10136,1.1896 -2.39936,2.94612 -2.88444,3.90339 -0.48509,0.95727 -1.11847,2.74355 -1.40751,3.96952 -0.28905,1.22597 -0.52554,3.66903 -0.52554,5.42903 0,1.76 0.23695,4.20504 0.52656,5.43342 0.28961,1.22838 0.86654,2.90838 1.28206,3.73333 0.41553,0.82496 1.30935,2.18288 1.98627,3.01761 0.67692,0.83472 2.18555,2.16607 3.35252,2.95854 1.16696,0.79247 3.03383,1.77214 4.14858,2.17704 1.49968,0.54472 2.90534,0.73981 5.40461,0.7501 2.48181,0.0102 4.04072,-0.18953 5.87704,-0.75307 1.3746,-0.42184 3.3746,-1.24176 4.44445,-1.82205 1.06984,-0.58028 2.56334,-1.62225 3.31887,-2.31547 0.75554,-0.69323 1.5072,-1.17791 1.67036,-1.07707 0.16316,0.10084 0.265,2.77391 0.2263,5.94015 l -0.0704,5.7568 -1.42222,0.80316 c -0.78222,0.44174 -2.94222,1.27099 -4.8,1.84277 -1.85778,0.57178 -4.17778,1.21082 -5.15555,1.42009 -0.97778,0.20927 -3.45778,0.45445 -5.51111,0.54485 -2.05334,0.0904 -4.70449,0.028 -5.89146,-0.13879 z m 171.58034,-3.77743 c -0.68444,-0.0701 -2.36444,-0.30768 -3.73333,-0.52799 -1.36889,-0.22031 -3.7501,-0.88259 -5.29159,-1.47174 l -2.8027,-1.07119 -2.38308,-2.35597 c -1.49479,-1.47778 -2.73646,-3.11021 -3.3311,-4.37939 -0.52141,-1.11287 -1.2019,-3.19287 -1.51221,-4.62222 l -0.56419,-2.59881 0.40071,-8 c 0.22039,-4.4 0.56044,-11.6 0.75568,-16 0.19523,-4.4 0.41567,-8.4 0.48987,-8.88889 0.0742,-0.48889 0.14824,-2.1416 0.16454,-3.6727 l 0.0296,-2.7838 0.97777,0.19941 c 0.53778,0.10968 3.37778,0.37146 6.31112,0.58173 2.93333,0.21027 5.45543,0.50335 5.60466,0.65128 0.14924,0.14793 0.1185,0.73887 -0.0683,1.31319 -0.1868,0.57432 -0.60687,5.20422 -0.93349,10.28867 -0.32662,5.08444 -0.72472,11.00444 -0.88466,13.15555 -0.15994,2.15111 -0.30041,6.23111 -0.31214,9.06667 l -0.0213,5.15556 0.83836,1.77777 c 0.4611,0.97778 1.22172,2.13014 1.69027,2.56081 0.46855,0.43067 1.46166,1.0378 2.20691,1.34919 0.74526,0.31139 2.35239,0.65929 3.57142,0.77313 1.5503,0.14477 2.82903,0.0289 4.25484,-0.38562 1.25053,-0.36354 2.57659,-1.07878 3.43075,-1.85046 0.88977,-0.80386 1.66644,-1.98581 2.15179,-3.27468 0.48219,-1.28044 0.93753,-3.83427 1.24713,-6.99459 0.2682,-2.73778 0.64347,-6.57778 0.83393,-8.53333 0.19047,-1.95556 0.44148,-5.95556 0.55781,-8.88889 0.11632,-2.93333 0.39043,-7.46564 0.60913,-10.07179 l 0.39763,-4.73846 0.74598,0.20366 c 0.4103,0.11201 2.66599,0.38751 5.01266,0.61222 2.34667,0.22472 4.39502,0.52174 4.5519,0.66004 0.15688,0.13831 0.10812,1.91511 -0.10836,3.94846 -0.21648,2.03334 -0.62283,6.57698 -0.90299,10.09698 -0.28016,3.52 -0.75463,9.84 -1.05438,14.04444 -0.34399,4.825 -0.81035,8.68593 -1.26444,10.46825 -0.3957,1.55309 -1.2104,3.74493 -1.81046,4.87075 -0.60005,1.12582 -1.81868,2.78505 -2.70806,3.68717 -0.88939,0.90212 -2.29284,2.10517 -3.11879,2.67344 -0.82595,0.56827 -2.68033,1.42215 -4.12085,1.89751 -1.58239,0.52218 -3.81542,0.93115 -5.64135,1.03318 -1.66222,0.0929 -3.58222,0.11155 -4.26667,0.0415 z m -138.06991,-1.86577 c -0.11179,-0.55893 -0.37958,-3.47893 -0.59509,-6.48889 -0.21551,-3.00996 -0.54474,-7.23265 -0.73161,-9.38376 -0.18687,-2.15111 -0.57702,-7.33859 -0.867,-11.52773 -0.28997,-4.18914 -0.59896,-7.86914 -0.68662,-8.17778 -0.0877,-0.30864 -0.34302,-3.52116 -0.56744,-7.13894 -0.22442,-3.61777 -0.53986,-7.09054 -0.70097,-7.71726 -0.19571,-0.76129 -0.15641,-1.2469 0.11841,-1.46311 0.22624,-0.17799 2.57135,-0.44152 5.21135,-0.58561 2.64,-0.1441 5.28,-0.2857 5.86666,-0.31467 l 1.06667,-0.0527 0.0796,1.42222 c 0.0438,0.78222 0.25055,2.94222 0.45944,4.8 0.20888,1.85778 0.61677,7.37778 0.90642,12.26667 0.28965,4.88889 0.7558,11.92889 1.03588,15.64444 0.28009,3.71556 0.74885,9.38973 1.04169,12.60928 0.29285,3.21955 0.47504,5.91113 0.40488,5.98129 -0.0702,0.0702 -2.66266,0.35254 -5.76109,0.62751 -3.09844,0.27497 -5.73353,0.50339 -5.85575,0.5076 -0.12222,0.004 -0.31368,-0.44965 -0.42547,-1.00858 z m 88.42977,-0.79317 c -0.99986,-0.16722 -2.99986,-0.72431 -4.44444,-1.23797 -1.44459,-0.51366 -3.71716,-1.66447 -5.05015,-2.55735 -1.33299,-0.89289 -3.09644,-2.39256 -3.91876,-3.3326 -0.82233,-0.94005 -2.01719,-2.57054 -2.65524,-3.62332 -0.63805,-1.05277 -1.63642,-3.25731 -2.21861,-4.89897 -0.69189,-1.95098 -1.23938,-4.52232 -1.58067,-7.42373 l -0.52214,-4.4389 0.55281,-4.24925 c 0.30405,-2.33709 0.93674,-5.45958 1.40598,-6.93888 0.46924,-1.47929 1.45726,-3.72451 2.1956,-4.98938 0.73834,-1.26486 2.46243,-3.43282 3.83132,-4.81768 1.36889,-1.38487 3.38391,-3.10195 4.47783,-3.81575 1.09391,-0.71379 3.04731,-1.69618 4.34088,-2.18308 1.29358,-0.4869 3.79863,-1.13492 5.56678,-1.44006 1.76815,-0.30513 3.9869,-0.55478 4.93055,-0.55478 0.94366,0 3.43006,0.24064 5.52534,0.53477 2.09528,0.29412 4.40313,0.68445 5.12856,0.86739 0.72542,0.18293 1.98198,0.51744 2.79235,0.74334 l 1.4734,0.41074 -0.18696,5.92188 c -0.10283,3.25703 -0.24151,5.98419 -0.30817,6.06035 -0.0667,0.0762 -0.64556,-0.25515 -1.28644,-0.73623 -0.64088,-0.48109 -1.88557,-1.21847 -2.76598,-1.63864 -0.88042,-0.42016 -2.84577,-0.9491 -4.36745,-1.17542 -2.0935,-0.31137 -3.54587,-0.31158 -5.96892,-8.3e-4 -2.36377,0.30314 -3.77603,0.71058 -5.39376,1.5561 -1.20536,0.62999 -2.99972,1.94543 -3.98748,2.92321 -0.98776,0.97778 -2.25459,2.63502 -2.81517,3.68277 -0.56058,1.04774 -1.31986,3.108 -1.6873,4.57836 -0.39599,1.58462 -0.66806,3.92496 -0.66806,5.7466 0,1.97529 0.25269,3.98509 0.7073,5.62559 0.38901,1.4038 1.04599,3.20217 1.45995,3.99637 0.41396,0.7942 1.44566,2.21479 2.29267,3.15687 0.84701,0.94207 2.47003,2.20816 3.60671,2.81352 1.23564,0.65806 3.30595,1.33259 5.1485,1.67743 l 3.0818,0.57676 3.31043,-0.57437 c 1.82074,-0.3159 4.11393,-0.91152 5.09598,-1.32359 0.98205,-0.41207 2.21025,-1.04081 2.72933,-1.39721 0.51907,-0.35639 1.13952,-0.64799 1.37877,-0.64799 0.31662,0 0.36232,0.41124 0.16794,1.51111 -0.14688,0.83112 -0.36733,3.24414 -0.48989,5.36229 l -0.22282,3.85117 -0.67776,0.4953 c -0.37276,0.27241 -1.57276,0.75636 -2.66666,1.07544 -1.09391,0.31909 -2.94892,0.71996 -4.12225,0.89083 -1.17333,0.17087 -4.21333,0.29519 -6.75556,0.27626 -2.54222,-0.0189 -5.44028,-0.17124 -6.44014,-0.33847 z m -64.75938,-1.30247 c 0.0918,-0.73291 -0.049,-6.29257 -0.31299,-12.35479 -0.26397,-6.06222 -0.71927,-15.42222 -1.01177,-20.8 -0.2925,-5.37778 -0.704,-11.75464 -0.91444,-14.17081 -0.21045,-2.41616 -0.32679,-4.44886 -0.25854,-4.51711 0.0682,-0.0682 0.75805,-0.14682 1.53289,-0.17461 0.77485,-0.0278 2.52882,-0.1915 3.89771,-0.36381 1.36889,-0.1723 5.52889,-0.4723 9.24444,-0.66667 4.32164,-0.22606 8.00582,-0.23211 10.22578,-0.0168 2.5076,0.24324 4.20426,0.64219 6.11645,1.43824 1.45543,0.6059 3.34798,1.63745 4.20565,2.29234 0.88256,0.67387 2.20618,2.26113 3.04949,3.65685 0.81954,1.35639 1.6408,2.99172 1.82503,3.63408 0.18423,0.64237 0.43522,2.30501 0.55777,3.69477 0.15627,1.77226 0.0511,3.25915 -0.35235,4.9791 -0.31633,1.34874 -1.07094,3.38245 -1.67691,4.51936 -0.60596,1.1369 -2.01021,2.93362 -3.12055,3.9927 -1.11034,1.05908 -2.93638,2.44346 -4.05786,3.07639 l -2.03907,1.15078 1.53524,1.6487 c 0.84439,0.90679 2.26229,2.6887 3.15091,3.95981 0.88861,1.27111 3.41053,4.90568 5.60426,8.07682 2.19373,3.17114 3.98109,5.8699 3.97191,5.99723 -0.009,0.12734 -1.49698,0.26767 -3.30622,0.31185 -1.80924,0.0442 -4.64953,0.20357 -6.31175,0.35421 l -3.02222,0.27388 -0.58738,-0.66255 c -0.32306,-0.3644 -1.45795,-2.26255 -2.52198,-4.2181 -1.06403,-1.95556 -2.6275,-4.90165 -3.47438,-6.54686 -0.84688,-1.64522 -2.02949,-3.54905 -2.62802,-4.23074 -0.59854,-0.68169 -1.57074,-1.44069 -2.16047,-1.68667 -0.69012,-0.28785 -1.92747,-0.37833 -3.47222,-0.25391 l -2.4,0.19331 0.007,2.17355 c 0.004,1.19544 0.16842,4.97354 0.36592,8.39576 0.19751,3.42222 0.39444,6.52276 0.43763,6.89009 0.0509,0.43269 -0.17189,0.70107 -0.6326,0.76219 -0.39111,0.0519 -3.16857,0.19099 -6.17214,0.30915 l -5.46104,0.21481 z m 19.36262,-26.81074 c 1.01859,-0.29885 2.41468,-0.92853 3.10242,-1.39927 0.68775,-0.47074 1.68825,-1.65589 2.22336,-2.63367 l 0.97291,-1.77778 -0.0239,-2.48889 c -0.0138,-1.43122 -0.25932,-3.0193 -0.57786,-3.73705 -0.30466,-0.68649 -0.94759,-1.67293 -1.42873,-2.19209 -0.48114,-0.51915 -1.56955,-1.29835 -2.41869,-1.73155 -1.20732,-0.61593 -2.37118,-0.82685 -5.33867,-0.9675 -2.08713,-0.0989 -4.225,-0.0719 -4.75083,0.0601 l -0.95606,0.23995 0.23224,8.25297 c 0.12774,4.53913 0.29935,8.46396 0.38138,8.72185 0.11353,0.35697 0.93452,0.43635 3.4398,0.3326 1.80986,-0.075 4.12406,-0.3808 5.14265,-0.67966 z m -43.79323,-35.18546 c -0.13627,-2.42167 -0.40038,-6.24303 -0.58692,-8.49192 -0.18653,-2.24889 -0.4361,-5.23577 -0.55461,-6.63752 l -0.21546,-2.54863 1.56023,-0.19123 c 0.85813,-0.10518 3.05427,-0.28511 4.88033,-0.39984 1.82606,-0.11473 3.78606,-0.30179 4.35556,-0.41569 l 1.03545,-0.20709 v 2.35555 2.35556 h -3.39003 -3.39002 l 0.22359,1.86666 c 0.12297,1.02667 0.28144,2.2463 0.35216,2.7103 0.0707,0.46399 0.22016,0.9352 0.33209,1.04713 0.11193,0.11192 1.43887,0.0255 2.94875,-0.19199 1.50989,-0.21752 2.79937,-0.34137 2.86552,-0.27522 0.0662,0.0661 0.20847,1.09291 0.31627,2.28169 l 0.19599,2.16143 -1.20494,0.003 c -0.66271,0.002 -2.04494,0.10398 -3.0716,0.2273 l -1.86667,0.22421 0.03,1.81715 c 0.0165,0.99942 0.14597,2.74656 0.28771,3.88253 0.14174,1.13597 0.13476,2.14138 -0.0155,2.23425 -0.15027,0.0929 -1.30078,0.2648 -2.55668,0.38208 l -2.28347,0.21324 z m 150.50752,2.91614 c -0.51967,-0.1687 -1.43967,-0.59902 -2.04445,-0.95628 l -1.0996,-0.64955 v -2.41223 c 0,-1.90716 0.11166,-2.41223 0.53333,-2.41223 0.29333,0 0.53333,0.15675 0.53333,0.34833 0,0.19158 0.63363,0.67158 1.40806,1.06667 0.79092,0.4035 2.1044,0.71834 2.99683,0.71834 0.97026,0 1.80628,-0.21752 2.1475,-0.55873 0.3073,-0.3073 0.55628,-0.9073 0.55328,-1.33334 -0.003,-0.42603 -0.12299,-0.95297 -0.26667,-1.17098 -0.14367,-0.21801 -1.14632,-0.89359 -2.22812,-1.50129 -1.08179,-0.6077 -2.48036,-1.60691 -3.10793,-2.22047 -0.62756,-0.61357 -1.31759,-1.77126 -1.53338,-2.57267 -0.2158,-0.8014 -0.28989,-2.10381 -0.16466,-2.89425 0.12523,-0.79044 0.63201,-2.02258 1.12618,-2.73808 0.49417,-0.71551 1.40683,-1.51551 2.02814,-1.77778 0.6361,-0.26851 2.24628,-0.45795 3.68537,-0.43359 1.81861,0.0308 2.89534,0.241 3.73333,0.72885 l 1.17763,0.68558 0.11016,1.71486 c 0.0606,0.94318 0.026,1.93408 -0.0768,2.202 -0.14468,0.37704 -0.48211,0.2868 -1.4931,-0.39927 -0.94701,-0.64266 -1.77914,-0.8864 -3.02614,-0.8864 h -1.71997 l -0.56303,0.85929 -0.56303,0.85929 0.46595,0.7511 c 0.25627,0.4131 1.50594,1.37221 2.77705,2.13134 1.27111,0.75913 2.78024,1.87362 3.35363,2.47664 0.67809,0.71314 1.11751,1.62527 1.25707,2.60937 0.118,0.83213 0.0878,2.23297 -0.067,3.11297 -0.15487,0.88 -0.56962,1.98902 -0.92166,2.46449 -0.35205,0.47547 -1.2437,1.17774 -1.98145,1.56061 -0.8231,0.42714 -2.25779,0.74209 -3.71318,0.81512 -1.30449,0.0655 -2.79698,-0.019 -3.31664,-0.18771 z m -135.07639,-1.5414 c -0.0117,-0.83111 -0.16774,-3.83111 -0.34679,-6.66666 -0.17906,-2.83556 -0.48119,-6.99556 -0.67139,-9.24445 -0.19021,-2.24889 -0.23415,-4.19759 -0.0977,-4.33045 0.1365,-0.13285 1.28818,-0.28277 2.55929,-0.33315 l 2.31111,-0.0916 0.24215,4.24426 c 0.13318,2.33435 0.4108,6.56427 0.61695,9.39982 0.20614,2.83556 0.37717,5.91556 0.38007,6.84445 l 0.005,1.68888 h -2.48888 -2.48889 z m 8.78667,-6.92619 c -0.13036,-4.45282 -0.33759,-9.38971 -0.46053,-10.97087 l -0.22351,-2.87485 4.22738,-0.45784 4.22739,-0.45784 1.70007,0.57719 c 0.93504,0.31745 2.09158,0.83372 2.57009,1.14725 0.47852,0.31354 1.22244,1.14028 1.65317,1.83721 0.59348,0.96028 0.77816,1.79549 0.76261,3.44894 -0.0115,1.22757 -0.2588,2.63998 -0.56532,3.2294 -0.29963,0.57618 -0.91999,1.38761 -1.37857,1.80317 -0.45858,0.41556 -1.19442,0.94153 -1.63519,1.16882 l -0.80142,0.41326 1.4871,2.03118 c 0.81791,1.11714 2.20131,2.87507 3.07423,3.90651 0.87292,1.03143 1.51081,1.95165 1.41752,2.04494 -0.0933,0.0933 -1.43193,0.20939 -2.97476,0.258 l -2.80514,0.0884 -1.96473,-2.85329 c -1.0806,-1.56931 -2.24104,-3.23966 -2.57877,-3.71188 -0.33772,-0.47223 -0.67065,-0.78825 -0.73985,-0.70227 -0.0692,0.086 -0.0329,1.81015 0.0807,3.8315 0.12833,2.28382 0.0719,3.77525 -0.14904,3.93954 -0.19556,0.1454 -1.33001,0.29479 -2.521,0.33197 l -2.16544,0.0676 z m 7.42602,-4.16772 c 0.75933,-0.31727 1.38248,-0.8995 1.61732,-1.51111 0.21011,-0.54724 0.29446,-1.5439 0.18744,-2.2148 -0.10703,-0.6709 -0.42597,-1.45119 -0.70876,-1.73398 -0.30428,-0.30428 -1.28065,-0.53204 -2.39185,-0.55796 l -1.87768,-0.0438 0.0843,2.13333 c 0.0463,1.17333 0.17512,2.65333 0.28616,3.28889 0.14545,0.83258 0.39277,1.15556 0.88484,1.15556 0.37563,0 1.23884,-0.23227 1.91825,-0.51614 z m 107.7988,11.00502 c -0.21465,-0.39111 -1.08671,-1.99111 -1.93793,-3.55555 -0.85121,-1.56445 -1.81084,-3.36445 -2.13252,-4 -0.32167,-0.63556 -0.69174,-1.15556 -0.82238,-1.15556 -0.13063,0 -0.34923,1.86861 -0.48577,4.15245 -0.13655,2.28385 -0.32947,4.28385 -0.42872,4.44445 -0.0993,0.16059 -1.20674,0.29199 -2.46107,0.29199 h -2.2806 l 0.18849,-3.46666 c 0.10368,-1.90667 0.35044,-5.70667 0.54837,-8.44445 0.19793,-2.73778 0.45032,-6.05778 0.56087,-7.37778 l 0.20099,-2.4 h 2.24235 c 1.2333,0 2.32523,0.1341 2.42652,0.29799 0.1013,0.1639 0.0216,1.34209 -0.17705,2.6182 -0.19868,1.27612 -0.31211,3.13911 -0.25208,4.13998 l 0.10916,1.81977 2.41659,-2.95523 c 1.32913,-1.62537 2.76913,-3.4747 3.2,-4.10962 l 0.78341,-1.15439 2.6505,0.2066 c 1.45777,0.11363 2.7713,0.3274 2.91896,0.47505 0.14765,0.14766 -0.33064,0.90693 -1.06287,1.68728 -0.73222,0.78035 -2.64253,2.81969 -4.24512,4.53188 l -2.91381,3.11305 0.68446,1.21863 c 0.37646,0.67024 1.27696,2.14936 2.00112,3.28694 0.72416,1.13757 2.00145,3.10216 2.83843,4.36575 0.83698,1.26358 1.43864,2.43195 1.33702,2.59636 -0.10161,0.16442 -1.38452,0.25057 -2.8509,0.19146 l -2.66615,-0.10747 z m -96.78005,-6.12975 c -0.13437,-3.47308 -0.35415,-8.28589 -0.48842,-10.69513 -0.13426,-2.40924 -0.14619,-4.53889 -0.0265,-4.73254 0.11968,-0.19366 2.52221,-0.48905 5.33894,-0.65643 2.81673,-0.16737 5.36132,-0.35773 5.65466,-0.42301 0.428,-0.0953 0.53333,0.30263 0.53333,2.01464 v 2.13334 l -3.18827,0.10385 c -1.93005,0.0629 -3.28893,0.26674 -3.44335,0.51659 -0.14029,0.227 -0.19227,0.82027 -0.1155,1.31837 0.0768,0.49809 0.23362,1.50616 0.34857,2.24015 l 0.20899,1.33452 1.88749,-0.22184 c 1.03811,-0.12201 2.43076,-0.24254 3.09477,-0.26785 l 1.2073,-0.046 v 2.13334 2.13333 l -3.11111,0.10273 -3.11111,0.10273 v 1.73486 c 0,0.95417 0.0979,1.98991 0.2175,2.30165 l 0.2175,0.5668 3.33805,-0.23464 3.33806,-0.23465 0.0506,1.20804 c 0.0279,0.66442 0.0602,1.60491 0.0719,2.08998 l 0.0212,0.88195 -1.40523,0.22712 c -0.77288,0.12491 -3.42796,0.32965 -5.90019,0.45497 l -4.49497,0.22785 z m 77.84182,5.15198 c -0.31964,-0.44 -1.38488,-2.30069 -2.3672,-4.13487 -1.2872,-2.40346 -1.87279,-3.1979 -2.09665,-2.84445 -0.17085,0.26974 -0.31484,1.45043 -0.31999,2.62376 -0.005,1.17333 -0.11064,2.74637 -0.23444,3.49563 l -0.22509,1.3623 -2.171,-0.24672 c -1.19405,-0.1357 -2.22131,-0.29238 -2.28279,-0.34817 -0.0615,-0.0558 0.0639,-3.75781 0.27854,-8.22669 0.21469,-4.46888 0.48063,-9.30631 0.59097,-10.74984 l 0.20062,-2.6246 4.14305,0.21785 c 2.27868,0.11982 4.76963,0.39575 5.53545,0.61318 0.76581,0.21743 1.84627,0.73089 2.40101,1.14103 0.55475,0.41014 1.32817,1.40579 1.71872,2.21257 0.39056,0.80678 0.7101,2.03247 0.7101,2.72377 0,0.6913 -0.18146,1.80079 -0.40324,2.46552 -0.22178,0.66474 -0.88279,1.71791 -1.4689,2.34037 -0.58611,0.62247 -1.52466,1.32188 -2.08565,1.55425 -0.56099,0.23237 -1.01999,0.56091 -1.01999,0.73008 0,0.16918 1.06843,1.94977 2.37429,3.95687 1.30586,2.0071 2.50586,3.7026 2.66667,3.76779 0.1608,0.0652 0.29238,0.26518 0.29238,0.44444 0,0.17926 -1.27253,0.32593 -2.82785,0.32593 h -2.82785 z m -0.13579,-11.97265 c 0.59702,-0.59703 1.03931,-1.41938 1.03931,-1.93241 0,-0.4912 -0.14857,-1.28388 -0.33016,-1.7615 -0.19138,-0.50335 -0.81154,-1.03621 -1.47528,-1.26759 -0.62982,-0.21955 -1.60124,-0.39919 -2.15873,-0.39919 h -1.01361 v 1.01451 c 0,0.55798 -0.10279,1.99798 -0.22842,3.2 l -0.22843,2.18549 h 1.678 1.678 z m -58.4586,11.77353 c -0.0747,-0.13493 -0.71972,-2.40533 -1.43349,-5.04533 -0.71377,-2.64 -1.53287,-5.6 -1.82021,-6.57778 -0.28734,-0.97777 -0.84004,-2.85604 -1.22821,-4.17392 -0.38818,-1.31789 -0.81012,-3.18274 -0.93765,-4.14412 l -0.23188,-1.74796 2.26357,-0.13672 c 1.24496,-0.0752 2.3252,-0.0954 2.40053,-0.0448 0.0753,0.0505 0.91122,3.09691 1.85753,6.76972 0.94631,3.67281 1.72468,7.05118 1.7297,7.50747 0.006,0.50273 0.18426,0.77147 0.45358,0.68202 0.24444,-0.0812 0.55172,-1.01357 0.68284,-2.07198 0.13112,-1.0584 0.40679,-2.48531 0.6126,-3.1709 0.2058,-0.6856 0.69122,-2.60654 1.07869,-4.26877 0.38747,-1.66222 0.80961,-3.62222 0.93808,-4.35555 l 0.23359,-1.33333 2.36043,0.003 2.36043,0.003 1.00428,4.3528 c 0.55235,2.39404 1.12873,4.6728 1.28084,5.06391 0.15211,0.39111 0.48954,1.79111 0.74984,3.11111 0.26031,1.32 0.5823,2.4 0.71553,2.4 0.13324,0 0.51475,-1.16 0.84779,-2.57778 0.33305,-1.41778 1.00412,-4.25778 1.49128,-6.31111 0.48716,-2.05333 1.00177,-4.21333 1.14358,-4.8 l 0.25785,-1.06667 2.60998,-0.10536 2.60998,-0.10536 -0.26061,0.6387 c -0.14334,0.35128 -0.46999,1.43869 -0.72589,2.41647 -0.25591,0.97778 -0.73472,2.65778 -1.06403,3.73333 -0.32931,1.07556 -0.91478,3.07556 -1.30104,4.44445 -0.38626,1.36888 -1.01856,3.68888 -1.40512,5.15555 -0.38656,1.46667 -0.86737,3.34667 -1.06845,4.17778 L 257.36463,217.6 h -2.62536 c -2.14139,0 -2.68436,-0.1147 -2.94539,-0.62222 -0.17602,-0.34222 -0.74763,-2.38222 -1.27024,-4.53334 -0.52262,-2.15111 -1.18423,-4.68948 -1.47026,-5.64083 -0.28603,-0.95134 -0.53642,-1.99134 -0.55644,-2.31111 -0.02,-0.31976 -0.17155,-0.10139 -0.33674,0.48528 -0.16519,0.58666 -0.55342,2.10666 -0.86274,3.37778 -0.30932,1.27111 -0.87032,3.73565 -1.24668,5.47675 -0.37636,1.74111 -0.81175,3.28076 -0.96754,3.42146 -0.15578,0.1407 -1.43973,0.34655 -2.85322,0.45746 -1.41349,0.1109 -2.63106,0.0913 -2.70571,-0.0437 z m 32.12013,-0.0275 c -0.48888,-0.15857 -1.52888,-0.61779 -2.31111,-1.02049 -0.78222,-0.40269 -1.84788,-1.18683 -2.36814,-1.74251 -0.52025,-0.55569 -1.31245,-1.72112 -1.76043,-2.58984 -0.61253,-1.1878 -0.85164,-2.35602 -0.96422,-4.71078 l -0.14971,-3.13128 0.80091,-2.14161 c 0.55889,-1.49448 1.37686,-2.72684 2.70696,-4.07837 1.49831,-1.52243 2.33839,-2.06243 3.92703,-2.52426 1.36814,-0.39773 2.78782,-0.53265 4.39496,-0.41766 1.50458,0.10766 2.99575,0.48038 4.07173,1.01775 0.93375,0.46634 2.30852,1.54179 3.05505,2.38989 0.82782,0.94045 1.65997,2.45144 2.13311,3.87325 0.59128,1.77678 0.73207,2.84843 0.59195,4.50579 -0.10111,1.19601 -0.51882,3.05721 -0.92824,4.13602 -0.45535,1.19982 -1.3779,2.60402 -2.37587,3.61625 -0.8973,0.91014 -2.21978,1.94262 -2.93883,2.2944 -0.85757,0.41955 -2.28599,0.66922 -4.15181,0.72568 -1.56445,0.0473 -3.24445,-0.0437 -3.73334,-0.20223 z m 4.65806,-4.35593 c 0.66474,-0.22264 1.58789,-0.74264 2.05146,-1.15555 0.46357,-0.41292 1.14357,-1.44402 1.51112,-2.29134 0.40645,-0.93703 0.66825,-2.3693 0.66825,-3.65587 0,-1.1634 -0.21824,-2.6376 -0.48498,-3.27601 -0.26675,-0.6384 -0.98119,-1.57826 -1.58766,-2.08857 -0.60648,-0.51032 -1.7527,-1.03766 -2.54718,-1.17189 -1.13792,-0.19225 -1.80084,-0.0673 -3.12345,0.58888 -1.3497,0.6696 -1.87069,1.2115 -2.65673,2.76336 -0.70446,1.39082 -0.97777,2.46242 -0.97777,3.83364 0,1.04677 0.21937,2.41808 0.48751,3.04736 0.26813,0.62927 0.91585,1.53928 1.43938,2.02223 0.52353,0.48296 1.38415,1.06997 1.91249,1.30446 0.52834,0.23449 1.21674,0.43935 1.52978,0.45523 0.31304,0.0159 1.11304,-0.15328 1.77778,-0.37593 z M 22.666667,0.08893812 C 34.84,0.03706135 54.76,0.03706135 66.933333,0.08893812 79.106667,0.14081489 69.146667,0.18325951 44.8,0.18325951 c -24.346667,0 -34.306667,-0.0424446 -22.133333,-0.09432139 z m 172.295853,-4.749e-5 c 58.24272,-0.04953897 153.44272,-0.04953853 211.55555,9.9e-7 58.11284,0.04953952 10.45971,0.0900714 -105.89585,0.09007086 -116.35555,-5.4e-7 -163.90242,-0.0405329 -105.6597,-0.09007185 z" id="path1" fill="#000000"/>
  </g>
</svg>